<?xml version="1.0" encoding="utf-8"?>
<?xml-stylesheet type="text/xsl" href="rss1.xsl"?>
<rss version="2.0" xmlns:atom="http://www.w3.org/2005/Atom" xmlns:content="http://purl.org/rss/1.0/modules/content/" xmlns:dc="http://purl.org/dc/elements/1.1/" xmlns:media="http://search.yahoo.com/mrss/">
<channel>
 <title>Getty</title>
 <link>http://www.gettyimg.com/</link>
 <atom:link href="http://www.gettyimg.com/" rel="self" type="application/rss+xml" />

 
                <item>
                <title><![CDATA[【HD Live Performances】HDTV - Tove Lo - Talking Body (VH1 Big Morning Buzz, USA, 23-03-2015) [1080p]]]></title>
                <link><![CDATA[https://sharemania.us/threads/tove-lo-talking-body-vh1-big-morning-buzz-usa-23-03-2015-1080p.237291/]]></link>
                <description><![CDATA[<article>
<blockquote class="messageText SelectQuoteContainer ugc baseHtml">
I deinterlaced the video with qtgmc + srestore + deblocked.<br>
<br>
<img src="https://i.postimg.cc/X7W725cs/Tove-Lo-Talking-Body-VH1-Big-Morning-Buzz-USA-23-03-2015-mp4.jpg" class="bbCodeImage LbImage" alt="[​IMG]" data-url="https://i.postimg.cc/X7W725cs/Tove-Lo-Talking-Body-VH1-Big-Morning-Buzz-USA-23-03-2015-mp4.jpg" style=""><br>
<br>
<div class="bbCodeBlock bbCodeVfcHH HiddenContent">
<div class="attribution type">Hidden Content:</div>
<blockquote>You must reply before you can see the hidden data contained here.</blockquote>
</div>
<div class="messageTextEndMarker">&nbsp;</div>
</blockquote>
</article>]]></description>
                <author><![CDATA[caladan]]></author>
                </item>

                
                <item>
                <title><![CDATA[【Music Videos】A-Teens - Reunion &amp; 25thA Live Medley (Mamma Mia,Upside Down,Floorfiller,Gimme! Gimme! Gimme!) [Melodifestivalen 2024] (1080p) SVT]]></title>
                <link><![CDATA[https://sharemania.us/threads/a-teens-reunion-25tha-live-medley-mamma-mia-upside-down-floorfiller-gimme-gimme-gimme-melodifestivalen-2024-1080p-svt.237292/]]></link>
                <description><![CDATA[<article>
<blockquote class="messageText SelectQuoteContainer ugc baseHtml">
<img src="https://i.ibb.co/yypSdc9/A-Teens-Reunion-25th-Anniversary-Celebration-Live-Medley-ABBA-Mamma-Mia-A-Teens-Upside-Down-A-Teens.jpg" class="bbCodeImage LbImage" alt="[​IMG]" data-url="https://i.ibb.co/yypSdc9/A-Teens-Reunion-25th-Anniversary-Celebration-Live-Medley-ABBA-Mamma-Mia-A-Teens-Upside-Down-A-Teens.jpg" style=""> <br>
<br>
<div class="ToggleTriggerAnchor bbCodeSpoilerContainer">
<button type="button" class="button bbCodeSpoilerButton ToggleTrigger Tooltip JsOnly" data-target="> .SpoilerTarget"><span>Spoiler: <span class="SpoilerTitle">MediaInfo</span></span></button>
<div class="SpoilerTarget bbCodeSpoilerText">A-Teens - Reunion &amp; 25th Anniversary Celebration Live Medley (ABBA - Mamma Mia, A-Teens - Upside Down, A-Teens - Floorfiller, ABBA - Gimme! Gimme! Gimme! (A Man After Midnight)) [Melodifestivalen 2024] (1080p) SVT.mp4<br>
Format : MPEG-4<br>
Format profile : Base Media<br>
Codec ID : isom (isom/iso2/avc1/mp41)<br>
File size : 140 MiB<br>
Duration : 5 min 17 s<br>
Overall bit rate : 3 691 kb/s<br>
Frame rate : 25.000 FPS<br>
Movie name : MELLANAKT: A-Teens<br>
Performer : Melodifestivalen<br>
Recorded date : 2024<br>
Writing application : Lavf58.39.101<br>
Comment : <br>
<br>
Video<br>
ID : 1<br>
Format : AVC<br>
Format/Info : Advanced Video Codec<br>
Format profile : High@L4<br>
Format settings : CABAC / 3 Ref Frames<br>
Format settings, CABAC : Yes<br>
Format settings, Reference : 3 frames<br>
Codec ID : avc1<br>
Codec ID/Info : Advanced Video Coding<br>
Duration : 5 min 17 s<br>
Bit rate : 3 557 kb/s<br>
Width : 1 920 pixels<br>
Height : 1 080 pixels<br>
Display aspect ratio : 16:9<br>
Frame rate mode : Constant<br>
Frame rate : 25.000 FPS<br>
Color space : YUV<br>
Chroma subsampling : 4:2:0<br>
Bit depth : 8 bits<br>
Scan type : Progressive<br>
Bits/(Pixel*Frame) : 0.069<br>
Stream size : 135 MiB (96%)<br>
Title : ISO Media file produced by Google Inc.<br>
Writing library : x264 core 155 r2901 7d0ff22<br>
Color range : Limited<br>
Color primaries : BT.709<br>
Transfer characteristics : BT.709<br>
Matrix coefficients : BT.709<br>
Codec configuration box : avcC<br>
<br>
Audio<br>
ID : 2<br>
Format : AAC LC<br>
Format/Info : Advanced Audio Codec Low Complexity<br>
Codec ID : mp4a-40-2<br>
Duration : 5 min 17 s<br>
Bit rate mode : Constant<br>
Bit rate : 128 kb/s<br>
Channel(s) : 2 channels<br>
Channel layout : L R<br>
Sampling rate : 44.1 kHz<br>
Frame rate : 43.066 FPS (1024 SPF)<br>
Compression mode : Lossy<br>
Stream size : 4.84 MiB (3%)<br>
Title : ISO Media file produced by Google Inc.<br>
Language : English<br>
Default : Yes<br>
Alternate group : 1</div>
</div><br>
<div class="bbCodeBlock bbCodeVfcHH HiddenContent">
<div class="attribution type">Hidden Content:</div>
<blockquote>You must reply before you can see the hidden data contained here.</blockquote>
</div>
<div class="messageTextEndMarker">&nbsp;</div>
</blockquote>
</article>]]></description>
                <author><![CDATA[DJ-RoGeRs-BS]]></author>
                </item>

                </channel></rss>